<svg version="1.1" id="Layer_1" xmlns="http://www.w3.org/2000/svg" xmlns:xlink="http://www.w3.org/1999/xlink" x="0px" y="0px"
	 width="100%" viewBox="0 0 500 500" enable-background="new 0 0 500 500" xml:space="preserve">
<path fill="#000000" opacity="1.000000" stroke="none" 
	d="
M463.000000,501.000000 
	C308.666718,501.000000 154.833405,501.000000 1.000082,501.000000 
	C1.000055,334.333405 1.000055,167.666824 1.000028,1.000172 
	C167.666550,1.000115 334.333099,1.000115 500.999756,1.000057 
	C500.999817,167.666519 500.999817,334.333038 500.999908,500.999756 
	C488.500000,501.000000 476.000000,501.000000 463.000000,501.000000 
M299.038849,259.955994 
	C299.038849,259.955994 298.997803,259.960052 298.778198,259.351929 
	C297.889893,258.862366 297.001587,258.372833 296.048737,257.894440 
	C296.048737,257.894440 296.102386,257.932037 295.963165,257.365234 
	C295.618408,257.268402 295.273682,257.171539 294.166168,257.049500 
	C292.465790,256.695984 290.765381,256.342468 288.708008,255.383499 
	C287.435303,254.967712 286.162567,254.551941 284.148132,254.051575 
	C282.773315,252.114227 281.398499,250.176865 280.023682,248.239517 
	C282.195038,247.122925 284.365387,245.105835 286.537933,245.103500 
	C289.692810,245.100128 292.949127,246.290298 295.977966,247.451859 
	C299.240479,248.703064 299.795319,246.448242 301.127167,244.518051 
	C302.835144,242.042770 301.641388,241.199081 299.645966,239.946014 
	C293.429749,236.042404 286.718231,235.642273 279.901398,237.229904 
	C273.114685,238.810501 268.808014,246.854202 270.989349,253.577896 
	C272.569702,259.120483 276.940460,260.998352 281.989746,262.002502 
	C281.989746,262.002502 282.027588,261.989136 282.145660,262.425568 
	C282.435211,262.281586 282.724792,262.137604 283.487335,261.951599 
	C283.487335,261.951599 283.958099,262.013824 284.311096,262.636627 
	C287.191956,263.773499 290.072845,264.910370 293.000000,266.001221 
	C293.000000,266.001221 292.950836,266.043060 292.980042,266.747009 
	C293.387695,267.826416 293.795349,268.905853 293.951416,270.549408 
	C293.291229,271.331787 292.631012,272.114136 291.157349,272.995209 
	C288.743530,273.279816 286.255798,274.062500 283.935303,273.718170 
	C281.263855,273.321716 278.682220,272.058746 276.168030,270.934143 
	C273.429352,269.709106 271.216827,269.368103 269.649902,272.658386 
	C268.087341,275.939514 269.526001,277.723755 272.440735,278.713715 
	C275.986725,279.918060 279.545593,281.377686 283.214050,281.871674 
	C293.196472,283.215881 298.773163,280.705780 302.572937,273.718536 
	C302.706604,273.157715 302.840302,272.596893 303.619415,271.623596 
	C303.077118,269.073547 302.534790,266.523499 301.920319,263.522827 
	C301.920319,263.522827 301.852661,263.071503 301.936798,262.527740 
	C301.651855,262.329895 301.366943,262.132050 300.799377,261.531952 
	C300.582367,261.276978 300.318939,261.086029 299.883972,260.471893 
	C299.601715,260.313660 299.319427,260.155426 299.038849,259.955994 
M129.953384,240.903336 
	C129.953384,240.903336 129.896011,240.869598 129.200470,240.876053 
	C128.124649,242.228653 127.048836,243.581268 125.971405,244.954041 
	C125.971405,244.954041 125.953850,244.963699 125.442902,245.054489 
	C125.273705,245.339249 125.104507,245.624008 124.475967,246.291611 
	C124.305771,246.860901 124.135582,247.430206 123.490250,248.126144 
	C123.150742,248.341278 123.068710,248.629730 123.115135,249.480499 
	C123.044418,249.633530 122.973709,249.786545 122.385872,250.076675 
	C122.292862,250.393921 122.199852,250.711151 122.059967,251.648438 
	C122.010361,252.058380 121.960754,252.468323 121.254372,253.205292 
	C121.241585,254.154434 121.228806,255.103592 121.180893,256.897675 
	C121.241051,258.586151 121.301216,260.274628 121.179131,262.736603 
	C122.232849,270.250275 125.050346,276.474701 132.996292,278.990448 
	C132.996292,278.990448 133.057281,278.991272 133.163223,279.441345 
	C133.338669,279.763641 133.602554,279.873474 134.455902,279.921692 
	C134.626297,279.958832 134.796707,279.996002 135.375702,280.660248 
	C137.588867,281.032318 139.802017,281.404388 142.517380,281.864136 
	C142.684326,281.832428 142.851288,281.800751 143.666855,281.886993 
	C144.102768,281.849152 144.538666,281.811340 145.474274,281.860077 
	C145.641342,281.834290 145.808426,281.808533 146.779907,281.916534 
	C150.200150,280.636566 153.620392,279.356598 157.055664,278.059998 
	C157.055664,278.059998 157.070938,278.043579 157.704239,277.952362 
	C158.502472,277.314545 159.300720,276.676697 160.800354,275.964783 
	C168.503281,268.137115 169.871689,259.120026 165.889847,248.438980 
	C164.712402,247.884979 163.534958,247.330978 162.466202,246.828110 
	C165.289459,242.358353 168.229599,237.703552 171.169754,233.048752 
	C170.835327,232.877777 170.500916,232.706787 170.166489,232.535812 
	C166.416794,235.963165 162.667114,239.390518 159.471786,242.311157 
	C158.225128,241.455856 157.147888,240.716797 156.052078,239.969025 
	C156.052078,239.969025 156.043533,239.950439 155.918427,239.440765 
	C155.611465,239.347748 155.304504,239.254730 154.478989,239.096466 
	C154.306732,239.070419 154.134491,239.044357 153.689285,238.508865 
	C153.138519,238.424179 152.587738,238.339478 151.377319,238.110458 
	C150.929077,238.069092 150.480835,238.027710 149.698074,237.397125 
	C148.137070,237.269470 146.576080,237.141830 144.327927,237.106522 
	C143.870850,237.174759 143.413773,237.242996 142.497284,237.166885 
	C142.497284,237.166885 142.022446,237.246887 141.343689,237.139435 
	C140.887665,237.169464 140.431625,237.199478 139.256516,237.070663 
	C138.180542,237.385788 137.104584,237.700897 135.549454,238.097778 
	C135.549454,238.097778 135.069962,238.177628 134.419968,238.023651 
	C133.606934,238.675476 132.793915,239.327286 131.477219,240.114578 
	C131.310089,240.162491 131.142975,240.210388 130.499191,240.227386 
	C130.198593,240.385193 130.002441,240.627533 129.953384,240.903336 
M424.136963,274.986237 
	C422.754578,275.045349 421.372162,275.104492 419.323425,274.783661 
	C414.892212,265.309509 417.021240,255.721436 417.998108,246.021957 
	C421.309906,246.021957 423.860901,246.360306 426.253082,245.890442 
	C427.608826,245.624146 428.704163,244.032272 429.916748,243.037415 
	C428.723999,242.035828 427.616241,240.299728 426.324860,240.150253 
	C417.002899,239.071091 416.990723,239.172836 416.945404,229.621185 
	C416.940735,228.633286 416.944763,227.645370 416.944763,226.738846 
	C410.554932,224.427322 410.041443,224.769333 410.026276,231.134872 
	C410.020416,233.593552 410.025330,236.052246 410.025330,238.744125 
	C407.860382,238.918137 406.085144,239.060806 404.002655,239.228195 
	C404.002655,241.456909 404.002655,243.557098 404.002655,245.229324 
	C406.530609,245.942688 408.348938,246.455811 410.025116,247.643433 
	C410.071014,247.868561 410.116913,248.093704 410.093933,249.213837 
	C410.093536,253.334778 409.979095,257.459747 410.124756,261.575531 
	C410.271179,265.713013 410.676483,269.841339 410.986328,274.447113 
	C410.986328,274.447113 411.135834,274.896698 411.017792,275.589966 
	C412.318817,277.076782 413.619873,278.563599 414.940338,280.062103 
	C414.940338,280.062103 414.954773,280.079529 415.293335,280.726868 
	C419.647614,282.572357 423.952881,283.446777 428.072937,280.080780 
	C428.072937,280.080780 428.090027,280.057831 428.844543,280.010406 
	C431.377808,279.108734 431.958466,277.199982 430.046387,275.617004 
	C428.928558,274.691559 426.692688,275.116547 424.993347,275.000000 
	C424.993347,275.000000 424.967468,274.933441 424.136963,274.986237 
M77.881752,222.446045 
	C77.585457,223.060638 77.031792,223.674591 77.030319,224.289902 
	C76.987297,242.203629 76.983887,260.117523 77.048859,278.031158 
	C77.052078,278.919464 77.727356,279.805328 78.972603,280.807129 
	C81.529465,280.807129 84.086327,280.807129 86.759567,280.807129 
	C86.759567,273.322815 86.759567,266.696075 86.928963,259.216858 
	C88.284256,258.480865 89.623672,257.144623 90.997482,257.108276 
	C98.765579,256.902771 106.541916,257.008911 114.519669,257.008911 
	C114.519669,253.848160 114.519669,251.301636 114.519669,248.118774 
	C105.306213,248.118774 96.416328,248.118774 87.039177,248.118774 
	C87.039177,242.050568 87.039177,236.607819 87.968803,231.068939 
	C98.181435,231.068939 108.394066,231.068939 119.189430,231.068939 
	C117.939522,227.274307 121.828209,222.333923 114.140106,222.050446 
	C107.067764,222.094925 99.995415,222.139404 92.122787,222.077515 
	C90.776718,222.125336 89.430656,222.173157 87.399223,222.065552 
	C86.933189,222.095032 86.467155,222.124512 85.180679,222.030075 
	C83.137985,222.354019 81.095284,222.677948 78.637276,223.043198 
	C78.637276,223.043198 78.244125,223.183319 77.881752,222.446045 
M362.891571,279.503601 
	C362.927734,267.375580 362.983734,255.247528 362.964417,243.119598 
	C362.962769,242.091782 362.457733,241.064758 361.934906,239.219009 
	C359.786041,238.705887 357.637146,238.192764 354.991882,237.561127 
	C354.991882,250.781143 354.986633,263.150177 354.994019,275.519226 
	C354.998016,282.246338 355.549622,282.581757 362.891571,279.503601 
M240.137741,274.136780 
	C238.439575,274.077118 236.741425,274.017426 234.971405,273.233063 
	C231.272583,270.040833 229.889145,265.919128 229.955032,261.136230 
	C230.035034,255.328430 229.705292,249.499832 230.090973,243.716125 
	C230.414536,238.864227 228.312149,237.432251 223.962311,237.954056 
	C222.974487,238.072556 221.977554,238.114990 220.177444,238.493622 
	C220.368942,248.319382 220.560440,258.145142 220.923782,268.734192 
	C221.888321,280.212311 237.618927,287.185944 251.540054,277.805878 
	C253.907150,282.980164 257.942810,280.616791 261.966034,280.458618 
	C261.966034,267.257721 262.064056,254.464447 261.811981,241.678070 
	C261.787231,240.421661 259.801392,238.532730 258.390900,238.139923 
	C256.508484,237.615692 254.298172,238.268860 252.034988,238.430115 
	C252.034988,246.544006 251.840729,254.026917 252.099426,261.494141 
	C252.289719,266.986389 249.223892,270.018158 245.011429,272.438019 
	C243.742401,273.167023 242.330475,273.647308 240.137741,274.136780 
M322.282318,274.051544 
	C321.483856,272.782928 320.046143,271.539368 319.995270,270.241455 
	C319.747498,263.920319 319.866211,257.584656 319.863464,251.254120 
	C319.859436,241.980316 319.862396,232.706497 319.862396,223.269974 
	C317.049530,223.269974 314.794556,223.269974 312.359314,223.269974 
	C312.359314,242.551987 312.359314,261.589691 312.359314,280.683319 
	C324.987457,280.683319 337.261017,280.683319 350.340546,280.683319 
	C349.764862,278.506836 349.306702,276.774597 348.529846,274.238007 
	C340.075531,274.238251 331.621185,274.238464 322.282318,274.051544 
M176.163605,272.209595 
	C184.326691,286.034027 209.236313,285.063568 214.866684,271.106720 
	C212.393524,269.665558 209.896942,268.210724 207.383209,266.745911 
	C206.756454,267.430054 206.421234,267.758026 206.129013,268.120636 
	C201.734528,273.573853 195.324646,275.963837 191.059845,273.411652 
	C183.743591,269.033386 180.455841,261.835693 182.746658,254.895477 
	C185.315903,247.111771 195.726334,240.709061 205.312210,249.385910 
	C209.152985,252.862442 210.741837,248.879700 213.367706,248.404068 
	C212.670959,246.570724 212.274643,244.528503 211.188354,242.965973 
	C210.208359,241.556305 208.605209,240.424042 207.050034,239.594940 
	C195.560516,233.469574 178.646744,236.413803 173.719528,251.807114 
	C171.619553,258.367676 170.659729,265.451691 176.163605,272.209595 
M381.172668,281.585571 
	C385.388702,281.270844 389.772186,281.568787 393.775177,280.474640 
	C398.048004,279.306702 400.629944,275.892242 400.990082,271.117004 
	C401.321594,266.720886 400.728058,262.486450 396.548279,260.384644 
	C392.610962,258.404785 387.975708,257.811523 384.041595,255.827026 
	C381.667633,254.629547 380.045227,251.942108 378.085114,249.924164 
	C380.026520,248.254349 381.813904,245.468750 383.945221,245.174484 
	C387.198242,244.725342 390.786987,245.671417 394.045746,246.649582 
	C396.385712,247.351944 398.155487,248.643280 399.381714,245.261703 
	C400.632904,241.811218 398.246063,240.644196 395.999786,240.113647 
	C391.754089,239.110901 387.384491,238.412094 383.031769,238.139206 
	C377.601105,237.798767 372.122833,242.077072 371.121429,246.868835 
	C369.809723,253.145294 372.798340,258.687958 378.851227,260.990784 
	C382.644196,262.433838 386.651581,263.413971 390.248657,265.225494 
	C391.867157,266.040588 393.721527,268.433411 393.637268,270.012604 
	C393.551605,271.618073 391.484558,273.929932 389.807098,274.483429 
	C385.102417,276.035706 380.380890,275.677979 376.080292,272.600250 
	C374.887878,271.746918 372.820770,270.868683 371.797241,271.354645 
	C370.622253,271.912537 369.490173,274.023773 369.590118,275.367188 
	C369.679138,276.564209 371.271667,278.092438 372.559998,278.662781 
	C375.062500,279.770660 377.817078,280.309143 381.172668,281.585571 
M360.248840,232.036240 
	C364.477570,231.402847 365.539032,228.497589 364.844391,224.909531 
	C364.080719,220.964722 360.718994,219.862808 357.385651,220.165863 
	C353.910034,220.481873 352.709167,223.221176 352.948395,226.589020 
	C353.236725,230.648453 355.460236,232.332443 360.248840,232.036240 
z"/>
<path fill="#245CA1" opacity="1.000000" stroke="none" 
	d="
M176.047501,271.851990 
	C170.659729,265.451691 171.619553,258.367676 173.719528,251.807114 
	C178.646744,236.413803 195.560516,233.469574 207.050034,239.594940 
	C208.605209,240.424042 210.208359,241.556305 211.188354,242.965973 
	C212.274643,244.528503 212.670959,246.570724 213.367706,248.404068 
	C210.741837,248.879700 209.152985,252.862442 205.312210,249.385910 
	C195.726334,240.709061 185.315903,247.111771 182.746658,254.895477 
	C180.455841,261.835693 183.743591,269.033386 191.059845,273.411652 
	C195.324646,275.963837 201.734528,273.573853 206.129013,268.120636 
	C206.421234,267.758026 206.756454,267.430054 207.383209,266.745911 
	C209.896942,268.210724 212.393524,269.665558 214.866684,271.106720 
	C209.236313,285.063568 184.326691,286.034027 176.047501,271.851990 
z"/>
<path fill="#245CA1" opacity="1.000000" stroke="none" 
	d="
M134.967102,280.033173 
	C134.796707,279.996002 134.626297,279.958832 134.071243,279.699219 
	C133.498688,279.286530 133.288925,279.124695 133.057281,278.991272 
	C133.057281,278.991272 132.996292,278.990448 132.885483,278.656311 
	C128.230423,273.946838 123.525780,269.686920 122.418137,262.974792 
	C122.354630,262.589905 121.726646,262.298187 121.361374,261.963104 
	C121.301216,260.274628 121.241051,258.586151 121.444412,256.335297 
	C121.775665,254.808044 121.843407,253.843155 121.911148,252.878265 
	C121.960754,252.468323 122.010361,252.058380 122.236397,251.171356 
	C122.611320,250.465515 122.774712,250.213943 122.903000,249.939575 
	C122.973709,249.786545 123.044418,249.633530 123.321442,249.086487 
	C123.709290,248.484009 123.855171,248.253021 123.965385,247.999496 
	C124.135582,247.430206 124.305771,246.860901 124.896286,245.968170 
	C125.557487,245.444366 125.769905,245.217361 125.953850,244.963699 
	C125.953850,244.963699 125.971405,244.954041 126.303986,244.876755 
	C127.723053,243.489502 128.809525,242.179550 129.896011,240.869598 
	C129.896011,240.869598 129.953384,240.903336 130.121765,240.832642 
	C130.535660,240.617111 130.764221,240.449219 130.975845,240.258270 
	C131.142975,240.210388 131.310089,240.162491 132.048767,240.025269 
	C133.436874,239.349838 134.253418,238.763733 135.069962,238.177628 
	C135.069962,238.177628 135.549454,238.097778 136.130859,238.056091 
	C137.800049,237.752777 138.887817,237.491135 139.975601,237.229507 
	C140.431625,237.199478 140.887665,237.169464 141.790161,237.259094 
	C142.236649,237.378769 142.603683,237.426895 142.603683,237.426895 
	C142.603683,237.426895 142.956696,237.311234 142.956696,237.311234 
	C143.413773,237.242996 143.870850,237.174759 144.986664,237.248703 
	C147.107803,237.589355 148.570190,237.787842 150.032593,237.986328 
	C150.480835,238.027710 150.929077,238.069092 151.927002,238.325073 
	C152.971878,238.699219 153.467056,238.858765 153.962234,239.018311 
	C154.134491,239.044357 154.306732,239.070419 154.899475,239.277618 
	C155.541809,239.651138 155.782990,239.815033 156.043533,239.950439 
	C156.043533,239.950439 156.052078,239.969025 156.002716,240.331360 
	C153.978958,242.455170 152.004593,244.216660 149.779694,245.957840 
	C149.363907,245.909821 149.198654,245.882111 148.899811,245.687927 
	C148.158966,245.618317 147.551743,245.715195 146.586426,245.681671 
	C145.776443,245.366837 145.332397,245.044983 144.871490,245.018646 
	C138.228378,244.639328 133.078079,248.819321 130.691040,256.482819 
	C129.136169,261.474731 132.046555,269.146088 136.540970,271.902161 
	C140.934174,274.596191 149.742325,273.153503 153.862381,269.746368 
	C157.706055,266.567810 158.022522,262.250671 159.116241,257.755096 
	C159.778091,253.369110 161.053925,249.856461 165.846619,249.090195 
	C169.871689,259.120026 168.503281,268.137115 160.183960,275.923218 
	C158.735352,276.602264 157.903137,277.322937 157.070938,278.043579 
	C157.070938,278.043579 157.055664,278.059998 156.660690,278.085999 
	C152.835648,279.335571 149.405579,280.559174 145.975510,281.782745 
	C145.808426,281.808533 145.641342,281.834290 145.041992,281.707397 
	C144.079208,281.626129 143.548721,281.697601 143.018234,281.769073 
	C142.851288,281.800751 142.684326,281.832428 142.091644,281.542175 
	C139.432968,280.824524 137.200027,280.428864 134.967102,280.033173 
z"/>
<path fill="#2D97C6" opacity="1.000000" stroke="none" 
	d="
M380.819946,281.334534 
	C377.817078,280.309143 375.062500,279.770660 372.559998,278.662781 
	C371.271667,278.092438 369.679138,276.564209 369.590118,275.367188 
	C369.490173,274.023773 370.622253,271.912537 371.797241,271.354645 
	C372.820770,270.868683 374.887878,271.746918 376.080292,272.600250 
	C380.380890,275.677979 385.102417,276.035706 389.807098,274.483429 
	C391.484558,273.929932 393.551605,271.618073 393.637268,270.012604 
	C393.721527,268.433411 391.867157,266.040588 390.248657,265.225494 
	C386.651581,263.413971 382.644196,262.433838 378.851227,260.990784 
	C372.798340,258.687958 369.809723,253.145294 371.121429,246.868835 
	C372.122833,242.077072 377.601105,237.798767 383.031769,238.139206 
	C387.384491,238.412094 391.754089,239.110901 395.999786,240.113647 
	C398.246063,240.644196 400.632904,241.811218 399.381714,245.261703 
	C398.155487,248.643280 396.385712,247.351944 394.045746,246.649582 
	C390.786987,245.671417 387.198242,244.725342 383.945221,245.174484 
	C381.813904,245.468750 380.026520,248.254349 378.085114,249.924164 
	C380.045227,251.942108 381.667633,254.629547 384.041595,255.827026 
	C387.975708,257.811523 392.610962,258.404785 396.548279,260.384644 
	C400.728058,262.486450 401.321594,266.720886 400.990082,271.117004 
	C400.629944,275.892242 398.048004,279.306702 393.775177,280.474640 
	C389.772186,281.568787 385.388702,281.270844 380.819946,281.334534 
z"/>
<path fill="#1F6CAE" opacity="1.000000" stroke="none" 
	d="
M283.958099,262.013824 
	C283.958099,262.013824 283.487335,261.951599 283.004089,261.958984 
	C282.520874,261.966370 282.027588,261.989136 282.027588,261.989136 
	C282.027588,261.989136 281.989746,262.002502 281.884033,261.671082 
	C278.217712,258.500824 274.657104,255.662018 271.096497,252.823212 
	C268.808014,246.854202 273.114685,238.810501 279.901398,237.229904 
	C286.718231,235.642273 293.429749,236.042404 299.645966,239.946014 
	C301.641388,241.199081 302.835144,242.042770 301.127167,244.518051 
	C299.795319,246.448242 299.240479,248.703064 295.977966,247.451859 
	C292.949127,246.290298 289.692810,245.100128 286.537933,245.103500 
	C284.365387,245.105835 282.195038,247.122925 280.023682,248.239502 
	C281.398499,250.176865 282.773315,252.114227 284.716583,254.373535 
	C286.545013,255.126633 287.805023,255.557800 289.065002,255.988968 
	C290.765381,256.342468 292.465790,256.695984 294.737701,257.213257 
	C295.560181,257.581238 295.824585,257.766235 296.102386,257.932037 
	C296.102386,257.932037 296.048737,257.894440 296.189087,258.194916 
	C297.218872,258.983612 298.108337,259.471832 298.997803,259.960052 
	C298.997803,259.960052 299.038849,259.955994 299.164734,260.170410 
	C299.488831,260.627930 299.728333,260.819336 300.009094,260.959106 
	C300.318939,261.086029 300.582367,261.276978 301.043030,261.938049 
	C301.457886,262.600159 301.646545,262.842621 301.852661,263.071503 
	C301.852661,263.071503 301.920319,263.522827 301.938843,264.175049 
	C302.296204,267.230194 302.635071,269.633118 302.973999,272.036041 
	C302.840302,272.596893 302.706604,273.157715 301.985474,273.943115 
	C297.269379,276.765015 293.817566,280.845215 288.256775,280.342377 
	C282.510590,279.822845 276.417175,280.065704 273.001434,273.750977 
	C275.646057,273.690948 277.996063,274.577118 280.424255,275.100372 
	C284.538055,275.986908 288.927460,277.811035 291.970795,272.896484 
	C292.631012,272.114136 293.291229,271.331787 294.220764,269.989166 
	C293.976990,268.300293 293.463898,267.171692 292.950836,266.043060 
	C292.950836,266.043060 293.000000,266.001221 292.889313,265.678558 
	C289.838440,264.241882 286.898285,263.127838 283.958099,262.013824 
z"/>
<path fill="#2D97C6" opacity="1.000000" stroke="none" 
	d="
M348.848511,275.042358 
	C349.306702,276.774597 349.764862,278.506836 350.340546,280.683319 
	C337.261017,280.683319 324.987457,280.683319 312.359314,280.683319 
	C312.359314,261.589691 312.359314,242.551987 312.359314,223.269974 
	C314.794556,223.269974 317.049530,223.269974 319.862396,223.269974 
	C319.862396,232.706497 319.859436,241.980316 319.863464,251.254120 
	C319.866211,257.584656 319.747498,263.920319 319.995270,270.241455 
	C320.046143,271.539368 321.483856,272.782928 323.127930,273.998993 
	C325.889984,274.220642 327.801147,274.680481 329.723816,274.735107 
	C336.096466,274.916168 342.473267,274.951263 348.848511,275.042358 
z"/>
<path fill="#22539C" opacity="1.000000" stroke="none" 
	d="
M87.039169,231.165085 
	C87.039177,236.607819 87.039177,242.050568 87.039177,248.118774 
	C96.416328,248.118774 105.306213,248.118774 114.519669,248.118774 
	C114.519669,251.301636 114.519669,253.848160 114.519669,257.008911 
	C106.541916,257.008911 98.765579,256.902771 90.997482,257.108276 
	C89.623672,257.144623 88.284256,258.480865 86.690414,260.016968 
	C86.298279,265.288269 86.158287,269.759979 85.985771,274.230438 
	C85.889633,276.721863 86.136986,279.694824 82.538315,279.726379 
	C78.941452,279.757965 79.031715,276.821228 79.033218,274.304352 
	C79.041634,260.180786 79.096352,246.057220 79.527069,231.945297 
	C82.291641,230.977219 84.664398,229.997498 87.031387,229.375458 
	C87.030136,230.210434 87.034653,230.687759 87.039169,231.165085 
M82.897339,236.925369 
	C83.195854,237.341034 83.494370,237.756714 83.792892,238.172379 
	C83.999962,237.974747 84.207031,237.777115 84.414085,237.579498 
	C84.012207,237.265549 83.610329,236.951599 82.897339,236.925369 
z"/>
<path fill="#275D8F" opacity="1.000000" stroke="none" 
	d="
M220.984802,238.192444 
	C221.977554,238.114990 222.974487,238.072556 223.962311,237.954056 
	C228.312149,237.432251 230.414536,238.864227 230.090973,243.716125 
	C229.705292,249.499832 230.035034,255.328430 229.955032,261.136230 
	C229.889145,265.919128 231.272583,270.040833 234.749878,273.727173 
	C229.349167,272.304871 228.248444,267.863129 228.069336,263.156647 
	C227.822372,256.667419 228.158981,250.151581 227.773254,243.675278 
	C227.685715,242.205566 225.659012,240.851349 224.524872,239.443970 
	C223.687073,240.864151 222.271286,242.227951 222.126099,243.715714 
	C221.771744,247.347092 221.703674,251.066437 222.071182,254.694580 
	C222.669464,260.601105 222.896820,266.735046 224.757004,272.277557 
	C227.293732,279.835724 237.613419,282.219604 244.578598,277.441467 
	C243.348236,276.346191 242.166122,275.293854 240.984024,274.241547 
	C242.330475,273.647308 243.742401,273.167023 245.011429,272.438019 
	C249.223892,270.018158 252.289719,266.986389 252.099426,261.494141 
	C251.840729,254.026917 252.034988,246.544006 252.034988,238.430115 
	C254.298172,238.268860 256.508484,237.615692 258.390900,238.139923 
	C259.801392,238.532730 261.787231,240.421661 261.811981,241.678070 
	C262.064056,254.464447 261.966034,267.257721 261.966034,280.458618 
	C257.942810,280.616791 253.907150,282.980164 251.540054,277.805878 
	C237.618927,287.185944 221.888321,280.212311 220.902893,267.892059 
	C220.916290,257.430756 220.950546,247.811600 220.984802,238.192444 
M259.097778,263.507751 
	C259.345673,258.869965 259.710754,254.234222 259.791687,249.593521 
	C259.831665,247.299118 259.523193,244.955811 259.015381,242.715561 
	C258.809723,241.808258 257.416992,240.345901 256.974792,240.480835 
	C255.919083,240.802979 254.805862,241.767715 254.284409,242.769028 
	C253.791519,243.715469 253.987808,245.038223 253.943100,246.197845 
	C253.651276,253.765320 253.043030,261.342651 253.251114,268.897095 
	C253.341171,272.166748 255.126816,275.389740 256.142273,278.633911 
	C256.962433,278.535919 257.782593,278.437927 258.602753,278.339966 
	C258.768494,273.725342 258.934235,269.110748 259.097778,263.507751 
M247.847305,274.613403 
	C247.393372,274.874054 246.939438,275.134705 246.485504,275.395355 
	C246.769196,275.687988 247.052872,275.980652 247.336548,276.273285 
	C247.612808,275.827515 247.889084,275.381744 247.847305,274.613403 
z"/>
<path fill="#239ECE" opacity="1.000000" stroke="none" 
	d="
M411.135834,274.896698 
	C411.135834,274.896698 410.986328,274.447113 410.962036,273.977478 
	C410.937714,273.507812 411.057678,273.056488 411.241943,272.682037 
	C411.214478,264.197845 411.002747,256.088135 410.895874,248.050201 
	C411.000732,248.122025 410.856934,248.331680 410.775848,248.087616 
	C410.518921,247.552002 410.343079,247.260452 410.167236,246.968918 
	C408.348938,246.455811 406.530609,245.942688 404.002655,245.229324 
	C404.002655,243.557098 404.002655,241.456909 404.002655,239.228195 
	C406.085144,239.060806 407.860382,238.918137 410.025330,238.744125 
	C410.025330,236.052246 410.020416,233.593552 410.026276,231.134872 
	C410.041443,224.769333 410.554932,224.427322 416.944763,226.738846 
	C416.944763,227.645370 416.940735,228.633286 416.945404,229.621185 
	C416.990723,239.172836 417.002899,239.071091 426.324860,240.150253 
	C427.616241,240.299728 428.723999,242.035828 429.916748,243.037415 
	C428.704163,244.032272 427.608826,245.624146 426.253082,245.890442 
	C423.860901,246.360306 421.309906,246.021957 417.998108,246.021957 
	C417.021240,255.721436 414.892212,265.309509 419.863037,275.205383 
	C421.924255,275.395905 423.445862,275.164673 424.967468,274.933472 
	C424.967468,274.933441 424.993347,275.000000 425.331970,275.059906 
	C426.477051,276.765808 427.283539,278.411835 428.090027,280.057831 
	C428.090027,280.057831 428.072937,280.080780 427.644409,280.061279 
	C423.128815,280.054352 419.041809,280.066925 414.954773,280.079529 
	C414.954773,280.079529 414.940338,280.062103 414.922821,279.702087 
	C413.648834,277.860260 412.392334,276.378479 411.135834,274.896698 
z"/>
<path fill="#275D8F" opacity="1.000000" stroke="none" 
	d="
M150.030212,245.978149 
	C152.004593,244.216660 153.978958,242.455170 156.011993,240.335709 
	C157.147888,240.716797 158.225128,241.455856 159.471786,242.311157 
	C162.667114,239.390518 166.416794,235.963165 170.166489,232.535812 
	C170.500916,232.706787 170.835327,232.877777 171.169754,233.048752 
	C168.229599,237.703552 165.289459,242.358353 162.466202,246.828110 
	C163.534958,247.330978 164.712402,247.884979 165.868225,248.764587 
	C161.053925,249.856461 159.778091,253.369110 158.822357,257.551880 
	C158.040421,256.448792 157.720947,255.286652 157.183472,253.331406 
	C154.128281,257.157257 151.310883,260.137054 149.167633,263.541290 
	C147.429489,266.302094 145.487198,268.332733 142.265350,267.277740 
	C139.284760,266.301727 135.918671,259.208923 136.590195,256.339081 
	C146.390701,261.745605 149.090805,252.903473 153.742599,248.037445 
	C152.407928,247.297089 151.219070,246.637619 150.030212,245.978149 
z"/>
<path fill="#1F6CAE" opacity="1.000000" stroke="none" 
	d="
M240.560883,274.189148 
	C242.166122,275.293854 243.348236,276.346191 244.578598,277.441467 
	C237.613419,282.219604 227.293732,279.835724 224.757004,272.277557 
	C222.896820,266.735046 222.669464,260.601105 222.071182,254.694580 
	C221.703674,251.066437 221.771744,247.347092 222.126099,243.715714 
	C222.271286,242.227951 223.687073,240.864151 224.524872,239.443970 
	C225.659012,240.851349 227.685715,242.205566 227.773254,243.675278 
	C228.158981,250.151581 227.822372,256.667419 228.069336,263.156647 
	C228.248444,267.863129 229.349167,272.304871 234.785797,274.089508 
	C236.741425,274.017426 238.439575,274.077118 240.560883,274.189148 
z"/>
<path fill="#245CA1" opacity="1.000000" stroke="none" 
	d="
M87.037163,229.017792 
	C84.664398,229.997498 82.291641,230.977219 79.502167,231.527100 
	C79.097679,229.411224 79.109917,227.725174 79.445847,225.927841 
	C81.846725,224.595703 83.923920,223.374832 86.001122,222.153976 
	C86.467155,222.124512 86.933189,222.095032 88.025452,222.288605 
	C90.075470,222.402405 91.499275,222.293137 92.923073,222.183868 
	C99.995415,222.139404 107.067764,222.094925 114.774612,222.410492 
	C117.804985,227.740280 117.166344,228.926773 111.759483,228.984009 
	C103.519508,229.071243 95.278015,229.013794 87.037163,229.017792 
z"/>
<path fill="#2D97C6" opacity="1.000000" stroke="none" 
	d="
M362.196869,279.979004 
	C355.549622,282.581757 354.998016,282.246338 354.994019,275.519226 
	C354.986633,263.150177 354.991882,250.781143 354.991882,237.561127 
	C357.637146,238.192764 359.786041,238.705887 362.033691,240.094330 
	C362.153961,253.972763 362.175415,266.975891 362.196869,279.979004 
M360.972412,264.489258 
	C360.651794,256.501709 361.686035,248.395142 359.721436,240.552017 
	C356.217529,244.056732 356.160431,275.293243 359.387604,279.669952 
	C362.051270,274.822693 360.541595,269.995453 360.972412,264.489258 
z"/>
<path fill="#275D8F" opacity="1.000000" stroke="none" 
	d="
M291.564087,272.945862 
	C288.927460,277.811035 284.538055,275.986908 280.424255,275.100372 
	C277.996063,274.577118 275.646057,273.690948 273.001434,273.750977 
	C276.417175,280.065704 282.510590,279.822845 288.256775,280.342377 
	C293.817566,280.845215 297.269379,276.765015 301.741211,274.102020 
	C298.773163,280.705780 293.196472,283.215881 283.214050,281.871674 
	C279.545593,281.377686 275.986725,279.918060 272.440735,278.713715 
	C269.526001,277.723755 268.087341,275.939514 269.649902,272.658386 
	C271.216827,269.368103 273.429352,269.709106 276.168030,270.934143 
	C278.682220,272.058746 281.263855,273.321716 283.935303,273.718170 
	C286.255798,274.062500 288.743530,273.279816 291.564087,272.945862 
z"/>
<path fill="#275D8F" opacity="1.000000" stroke="none" 
	d="
M79.122162,226.039124 
	C79.109917,227.725174 79.097679,229.411224 79.110352,231.515472 
	C79.096352,246.057220 79.041634,260.180786 79.033218,274.304352 
	C79.031715,276.821228 78.941452,279.757965 82.538315,279.726379 
	C86.136986,279.694824 85.889633,276.721863 85.985771,274.230438 
	C86.158287,269.759979 86.298279,265.288269 86.605713,260.443207 
	C86.759567,266.696075 86.759567,273.322815 86.759567,280.807129 
	C84.086327,280.807129 81.529465,280.807129 78.459045,280.312500 
	C78.045029,260.939697 78.144577,242.061508 78.244125,223.183319 
	C78.244125,223.183319 78.637276,223.043198 78.846840,223.403030 
	C79.078323,224.521622 79.100243,225.280365 79.122162,226.039124 
z"/>
<path fill="#275D8F" opacity="1.000000" stroke="none" 
	d="
M87.031387,229.375458 
	C95.278015,229.013794 103.519508,229.071243 111.759483,228.984009 
	C117.166344,228.926773 117.804985,227.740280 115.209488,222.478790 
	C121.828209,222.333923 117.939522,227.274307 119.189430,231.068939 
	C108.394066,231.068939 98.181435,231.068939 87.503983,231.117004 
	C87.034653,230.687759 87.030136,230.210434 87.031387,229.375458 
z"/>
<path fill="#2D97C6" opacity="1.000000" stroke="none" 
	d="
M359.825623,232.018127 
	C355.460236,232.332443 353.236725,230.648453 352.948395,226.589020 
	C352.709167,223.221176 353.910034,220.481873 357.385651,220.165863 
	C360.718994,219.862808 364.080719,220.964722 364.844391,224.909531 
	C365.539032,228.497589 364.477570,231.402847 359.825623,232.018127 
M358.485962,229.435226 
	C359.901062,228.155243 361.316132,226.875259 362.731201,225.595276 
	C361.653351,224.497406 360.730652,222.835602 359.447845,222.482651 
	C358.447388,222.207397 355.901825,223.660217 355.948730,224.169754 
	C356.112000,225.944763 357.104004,227.643539 358.485962,229.435226 
z"/>
<path fill="#C8E4FF" opacity="1.000000" stroke="none" 
	d="
M78.062943,222.814682 
	C78.144577,242.061508 78.045029,260.939697 78.017593,280.255127 
	C77.727356,279.805328 77.052078,278.919464 77.048859,278.031158 
	C76.983887,260.117523 76.987297,242.203629 77.030319,224.289902 
	C77.031792,223.674591 77.585457,223.060638 78.062943,222.814682 
z"/>
<path fill="#C8E4FF" opacity="1.000000" stroke="none" 
	d="
M362.544220,279.741302 
	C362.175415,266.975891 362.153961,253.972763 362.159515,240.503510 
	C362.457733,241.064758 362.962769,242.091782 362.964417,243.119598 
	C362.983734,255.247528 362.927734,267.375580 362.544220,279.741302 
z"/>
<path fill="#275D8F" opacity="1.000000" stroke="none" 
	d="
M121.270248,262.349854 
	C121.726646,262.298187 122.354630,262.589905 122.418137,262.974792 
	C123.525780,269.686920 128.230423,273.946838 132.896790,278.627991 
	C125.050346,276.474701 122.232849,270.250275 121.270248,262.349854 
z"/>
<path fill="#275D8F" opacity="1.000000" stroke="none" 
	d="
M271.042908,253.200562 
	C274.657104,255.662018 278.217712,258.500824 281.891571,261.652466 
	C276.940460,260.998352 272.569702,259.120483 271.042908,253.200562 
z"/>
<path fill="#2D97C6" opacity="1.000000" stroke="none" 
	d="
M220.581116,238.343033 
	C220.950546,247.811600 220.916290,257.430756 220.816971,267.510437 
	C220.560440,258.145142 220.368942,248.319382 220.581116,238.343033 
z"/>
<path fill="#C8E4FF" opacity="1.000000" stroke="none" 
	d="
M348.689148,274.640198 
	C342.473267,274.951263 336.096466,274.916168 329.723816,274.735107 
	C327.801147,274.680481 325.889984,274.220642 323.570221,274.092590 
	C331.621185,274.238464 340.075531,274.238251 348.689148,274.640198 
z"/>
<path fill="#C8E4FF" opacity="1.000000" stroke="none" 
	d="
M411.057678,273.056488 
	C411.057678,273.056488 410.937714,273.507812 410.953003,273.740723 
	C410.676483,269.841339 410.271179,265.713013 410.124756,261.575531 
	C409.979095,257.459747 410.093536,253.334778 410.302124,248.766876 
	C410.510284,248.319901 410.856934,248.331680 410.856934,248.331680 
	C410.856934,248.331680 411.000732,248.122025 410.851562,248.524292 
	C410.820801,256.969879 410.939240,265.013184 411.057678,273.056488 
z"/>
<path fill="#2D97C6" opacity="1.000000" stroke="none" 
	d="
M415.124054,280.403198 
	C419.041809,280.066925 423.128815,280.054352 427.630127,280.062744 
	C423.952881,283.446777 419.647614,282.572357 415.124054,280.403198 
z"/>
<path fill="#275D8F" opacity="1.000000" stroke="none" 
	d="
M146.377716,281.849640 
	C149.405579,280.559174 152.835648,279.335571 156.653168,278.094299 
	C153.620392,279.356598 150.200150,280.636566 146.377716,281.849640 
z"/>
<path fill="#22539C" opacity="1.000000" stroke="none" 
	d="
M79.445847,225.927841 
	C79.100243,225.280365 79.078323,224.521622 79.054497,223.382370 
	C81.095284,222.677948 83.137985,222.354019 85.590897,222.092026 
	C83.923920,223.374832 81.846725,224.595703 79.445847,225.927841 
z"/>
<path fill="#2D97C6" opacity="1.000000" stroke="none" 
	d="
M428.467285,280.034119 
	C427.283539,278.411835 426.477051,276.765808 425.315186,275.026917 
	C426.692688,275.116547 428.928558,274.691559 430.046387,275.617004 
	C431.958466,277.199982 431.377808,279.108734 428.467285,280.034119 
z"/>
<path fill="#275D8F" opacity="1.000000" stroke="none" 
	d="
M284.134583,262.325226 
	C286.898285,263.127838 289.838440,264.241882 292.866150,265.701569 
	C290.072845,264.910370 287.191956,263.773499 284.134583,262.325226 
z"/>
<path fill="#275D8F" opacity="1.000000" stroke="none" 
	d="
M135.171402,280.346710 
	C137.200027,280.428864 139.432968,280.824524 141.840546,281.498352 
	C139.802017,281.404388 137.588867,281.032318 135.171402,280.346710 
z"/>
<path fill="#275D8F" opacity="1.000000" stroke="none" 
	d="
M303.296692,271.829834 
	C302.635071,269.633118 302.296204,267.230194 301.974915,264.400360 
	C302.534790,266.523499 303.077118,269.073547 303.296692,271.829834 
z"/>
<path fill="#2D97C6" opacity="1.000000" stroke="none" 
	d="
M411.076813,275.243347 
	C412.392334,276.378479 413.648834,277.860260 414.913116,279.696228 
	C413.619873,278.563599 412.318817,277.076782 411.076813,275.243347 
z"/>
<path fill="#275D8F" opacity="1.000000" stroke="none" 
	d="
M129.548248,240.872833 
	C128.809525,242.179550 127.723053,243.489502 126.304794,244.866669 
	C127.048836,243.581268 128.124649,242.228653 129.548248,240.872833 
z"/>
<path fill="#2D97C6" opacity="1.000000" stroke="none" 
	d="
M424.552216,274.959839 
	C423.445862,275.164673 421.924255,275.395905 420.196228,275.395386 
	C421.372162,275.104492 422.754578,275.045349 424.552216,274.959839 
z"/>
<path fill="#275D8F" opacity="1.000000" stroke="none" 
	d="
M149.865326,237.691727 
	C148.570190,237.787842 147.107803,237.589355 145.330231,237.202545 
	C146.576080,237.141830 148.137070,237.269470 149.865326,237.691727 
z"/>
<path fill="#275D8F" opacity="1.000000" stroke="none" 
	d="
M292.965454,266.395020 
	C293.463898,267.171692 293.976990,268.300293 294.346527,269.707092 
	C293.795349,268.905853 293.387695,267.826416 292.965454,266.395020 
z"/>
<path fill="#275D8F" opacity="1.000000" stroke="none" 
	d="
M288.886505,255.686234 
	C287.805023,255.557800 286.545013,255.126633 285.087463,254.415833 
	C286.162567,254.551941 287.435303,254.967712 288.886505,255.686234 
z"/>
<path fill="#275D8F" opacity="1.000000" stroke="none" 
	d="
M121.582756,253.041779 
	C121.843407,253.843155 121.775665,254.808044 121.461975,255.912842 
	C121.228806,255.103592 121.241585,254.154434 121.582756,253.041779 
z"/>
<path fill="#275D8F" opacity="1.000000" stroke="none" 
	d="
M157.387589,277.997986 
	C157.903137,277.322937 158.735352,276.602264 159.833252,275.960266 
	C159.300720,276.676697 158.502472,277.314545 157.387589,277.997986 
z"/>
<path fill="#22539C" opacity="1.000000" stroke="none" 
	d="
M92.522934,222.130692 
	C91.499275,222.293137 90.075470,222.402405 88.368134,222.366318 
	C89.430656,222.173157 90.776718,222.125336 92.522934,222.130692 
z"/>
<path fill="#275D8F" opacity="1.000000" stroke="none" 
	d="
M134.744965,238.100647 
	C134.253418,238.763733 133.436874,239.349838 132.300598,239.957535 
	C132.793915,239.327286 133.606934,238.675476 134.744965,238.100647 
z"/>
<path fill="#275D8F" opacity="1.000000" stroke="none" 
	d="
M298.888000,259.656006 
	C298.108337,259.471832 297.218872,258.983612 296.221344,258.189331 
	C297.001587,258.372833 297.889893,258.862366 298.888000,259.656006 
z"/>
<path fill="#275D8F" opacity="1.000000" stroke="none" 
	d="
M139.616058,237.150085 
	C138.887817,237.491135 137.800049,237.752777 136.370453,238.015228 
	C137.104584,237.700897 138.180542,237.385788 139.616058,237.150085 
z"/>
<path fill="#275D8F" opacity="1.000000" stroke="none" 
	d="
M153.825760,238.763580 
	C153.467056,238.858765 152.971878,238.699219 152.256836,238.397232 
	C152.587738,238.339478 153.138519,238.424179 153.825760,238.763580 
z"/>
<path fill="#275D8F" opacity="1.000000" stroke="none" 
	d="
M143.342545,281.828033 
	C143.548721,281.697601 144.079208,281.626129 144.792145,281.664124 
	C144.538666,281.811340 144.102768,281.849152 143.342545,281.828033 
z"/>
<path fill="#275D8F" opacity="1.000000" stroke="none" 
	d="
M133.110260,279.216309 
	C133.288925,279.124695 133.498688,279.286530 133.820740,279.623779 
	C133.602554,279.873474 133.338669,279.763641 133.110260,279.216309 
z"/>
<path fill="#275D8F" opacity="1.000000" stroke="none" 
	d="
M301.894714,262.799622 
	C301.646545,262.842621 301.457886,262.600159 301.184326,262.139160 
	C301.366943,262.132050 301.651855,262.329895 301.894714,262.799622 
z"/>
<path fill="#2D97C6" opacity="1.000000" stroke="none" 
	d="
M410.775848,248.087616 
	C410.856934,248.331680 410.510284,248.319901 410.336548,248.319382 
	C410.116913,248.093704 410.071014,247.868561 410.096191,247.306183 
	C410.343079,247.260452 410.518921,247.552002 410.775848,248.087616 
z"/>
<path fill="#275D8F" opacity="1.000000" stroke="none" 
	d="
M142.726990,237.239059 
	C142.956696,237.311234 142.603683,237.426895 142.603683,237.426895 
	C142.603683,237.426895 142.236649,237.378769 142.129547,237.312836 
	C142.022446,237.246887 142.497284,237.166885 142.726990,237.239059 
z"/>
<path fill="#275D8F" opacity="1.000000" stroke="none" 
	d="
M282.086609,262.207336 
	C282.027588,261.989136 282.520874,261.966370 282.767609,261.979980 
	C282.724792,262.137604 282.435211,262.281586 282.086609,262.207336 
z"/>
<path fill="#275D8F" opacity="1.000000" stroke="none" 
	d="
M299.946533,260.715515 
	C299.728333,260.819336 299.488831,260.627930 299.163879,260.191040 
	C299.319427,260.155426 299.601715,260.313660 299.946533,260.715515 
z"/>
<path fill="#275D8F" opacity="1.000000" stroke="none" 
	d="
M296.032776,257.648621 
	C295.824585,257.766235 295.560181,257.581238 295.119080,257.225891 
	C295.273682,257.171539 295.618408,257.268402 296.032776,257.648621 
z"/>
<path fill="#275D8F" opacity="1.000000" stroke="none" 
	d="
M155.980988,239.695602 
	C155.782990,239.815033 155.541809,239.651138 155.158752,239.310242 
	C155.304504,239.254730 155.611465,239.347748 155.980988,239.695602 
z"/>
<path fill="#275D8F" opacity="1.000000" stroke="none" 
	d="
M130.737518,240.242828 
	C130.764221,240.449219 130.535660,240.617111 130.100449,240.858185 
	C130.002441,240.627533 130.198593,240.385193 130.737518,240.242828 
z"/>
<path fill="#275D8F" opacity="1.000000" stroke="none" 
	d="
M122.644440,250.008118 
	C122.774712,250.213943 122.611320,250.465515 122.259834,250.861343 
	C122.199852,250.711151 122.292862,250.393921 122.644440,250.008118 
z"/>
<path fill="#275D8F" opacity="1.000000" stroke="none" 
	d="
M125.698380,245.009094 
	C125.769905,245.217361 125.557487,245.444366 125.125961,245.776733 
	C125.104507,245.624008 125.273705,245.339249 125.698380,245.009094 
z"/>
<path fill="#275D8F" opacity="1.000000" stroke="none" 
	d="
M123.727814,248.062820 
	C123.855171,248.253021 123.709290,248.484009 123.385956,248.841995 
	C123.068710,248.629730 123.150742,248.341278 123.727814,248.062820 
z"/>
<path fill="#000000" opacity="1.000000" stroke="none" 
	d="
M149.779678,245.957825 
	C151.219070,246.637619 152.407928,247.297089 153.742599,248.037445 
	C149.090805,252.903473 146.390701,261.745605 136.590195,256.339081 
	C135.918671,259.208923 139.284760,266.301727 142.265350,267.277740 
	C145.487198,268.332733 147.429489,266.302094 149.167633,263.541290 
	C151.310883,260.137054 154.128281,257.157257 157.183472,253.331406 
	C157.720947,255.286652 158.040421,256.448792 158.653778,257.814148 
	C158.022522,262.250671 157.706055,266.567810 153.862381,269.746368 
	C149.742325,273.153503 140.934174,274.596191 136.540970,271.902161 
	C132.046555,269.146088 129.136169,261.474731 130.691040,256.482819 
	C133.078079,248.819321 138.228378,244.639328 144.871490,245.018646 
	C145.332397,245.044983 145.776443,245.366837 146.929794,245.771362 
	C148.098648,245.945740 148.566040,245.900070 149.033417,245.854401 
	C149.198654,245.882111 149.363907,245.909821 149.779678,245.957825 
z"/>
<path fill="#275D8F" opacity="1.000000" stroke="none" 
	d="
M148.899811,245.687927 
	C148.566040,245.900070 148.098648,245.945740 147.287903,245.901749 
	C147.551743,245.715195 148.158966,245.618317 148.899811,245.687927 
z"/>
<path fill="#245CA1" opacity="1.000000" stroke="none" 
	d="
M83.052895,236.781525 
	C83.610329,236.951599 84.012207,237.265549 84.414093,237.579498 
	C84.207031,237.777115 83.999962,237.974747 83.792892,238.172379 
	C83.494370,237.756714 83.195854,237.341034 83.052895,236.781525 
z"/>
<path fill="#1F6CAE" opacity="1.000000" stroke="none" 
	d="
M259.098877,264.001953 
	C258.934235,269.110748 258.768494,273.725342 258.602753,278.339966 
	C257.782593,278.437927 256.962433,278.535919 256.142273,278.633911 
	C255.126816,275.389740 253.341171,272.166748 253.251114,268.897095 
	C253.043030,261.342651 253.651276,253.765320 253.943100,246.197845 
	C253.987808,245.038223 253.791519,243.715469 254.284409,242.769028 
	C254.805862,241.767715 255.919083,240.802979 256.974792,240.480835 
	C257.416992,240.345901 258.809723,241.808258 259.015381,242.715561 
	C259.523193,244.955811 259.831665,247.299118 259.791687,249.593521 
	C259.710754,254.234222 259.345673,258.869965 259.098877,264.001953 
z"/>
<path fill="#1F6CAE" opacity="1.000000" stroke="none" 
	d="
M248.006317,274.774719 
	C247.889084,275.381744 247.612808,275.827515 247.336548,276.273285 
	C247.052872,275.980652 246.769196,275.687988 246.485504,275.395386 
	C246.939438,275.134705 247.393372,274.874054 248.006317,274.774719 
z"/>
<path fill="#2D97C6" opacity="1.000000" stroke="none" 
	d="
M411.241943,272.682037 
	C410.939240,265.013184 410.820801,256.969879 410.746674,248.452484 
	C411.002747,256.088135 411.214478,264.197845 411.241943,272.682037 
z"/>
<path fill="#239ECE" opacity="1.000000" stroke="none" 
	d="
M360.972290,264.985565 
	C360.541595,269.995453 362.051270,274.822693 359.387604,279.669952 
	C356.160431,275.293243 356.217529,244.056732 359.721436,240.552017 
	C361.686035,248.395142 360.651794,256.501709 360.972290,264.985565 
z"/>
<path fill="#239ECE" opacity="1.000000" stroke="none" 
	d="
M358.133484,229.403259 
	C357.104004,227.643539 356.112000,225.944763 355.948730,224.169754 
	C355.901825,223.660217 358.447388,222.207397 359.447845,222.482651 
	C360.730652,222.835602 361.653351,224.497406 362.731201,225.595276 
	C361.316132,226.875259 359.901062,228.155243 358.133484,229.403259 
z"/>
</svg>